<svg width="301" height="600" viewBox="0 0 301 600" fill="none" xmlns="http://www.w3.org/2000/svg">
<mask id="path-1-inside-1_4019_409" fill="white">
<path fill-rule="evenodd" clip-rule="evenodd" d="M300.5 24.2433C300.5 21.7558 297.988 20 295.5 20C287.216 20 280.5 13.2843 280.5 5C280.5 2.51247 278.744 0 276.257 0H24.7433C22.2558 0 20.5 2.51246 20.5 5C20.5 13.2843 13.7843 20 5.5 20C3.01246 20 0.5 21.7558 0.5 24.2433V468.757C0.5 471.244 3.01247 473 5.5 473C13.7843 473 20.5 479.716 20.5 488C20.5 496.284 13.7843 503 5.5 503C3.01247 503 0.5 504.756 0.5 507.243V575.757C0.5 578.244 3.01245 580 5.5 580C13.7843 580 20.5 586.716 20.5 595C20.5 597.488 22.2558 600 24.7433 600H276.257C278.744 600 280.5 597.488 280.5 595C280.5 586.716 287.216 580 295.5 580C297.988 580 300.5 578.244 300.5 575.757V507.243C300.5 504.756 297.988 503 295.5 503C287.216 503 280.5 496.284 280.5 488C280.5 479.716 287.216 473 295.5 473C297.988 473 300.5 471.244 300.5 468.757V24.2433ZM280.5 487C280.5 487.552 280.052 488 279.5 488H273.5C272.948 488 272.5 487.552 272.5 487C272.5 486.448 272.948 486 273.5 486H279.5C280.052 486 280.5 486.448 280.5 487ZM267.5 488C268.052 488 268.5 487.552 268.5 487C268.5 486.448 268.052 486 267.5 486H261.5C260.948 486 260.5 486.448 260.5 487C260.5 487.552 260.948 488 261.5 488H267.5ZM256.5 487C256.5 487.552 256.052 488 255.5 488H249.5C248.948 488 248.5 487.552 248.5 487C248.5 486.448 248.948 486 249.5 486H255.5C256.052 486 256.5 486.448 256.5 487ZM243.5 488C244.052 488 244.5 487.552 244.5 487C244.5 486.448 244.052 486 243.5 486H237.5C236.948 486 236.5 486.448 236.5 487C236.5 487.552 236.948 488 237.5 488H243.5ZM232.5 487C232.5 487.552 232.052 488 231.5 488H225.5C224.948 488 224.5 487.552 224.5 487C224.5 486.448 224.948 486 225.5 486H231.5C232.052 486 232.5 486.448 232.5 487ZM219.5 488C220.052 488 220.5 487.552 220.5 487C220.5 486.448 220.052 486 219.5 486H213.5C212.948 486 212.5 486.448 212.5 487C212.5 487.552 212.948 488 213.5 488H219.5ZM208.5 487C208.5 487.552 208.052 488 207.5 488H201.5C200.948 488 200.5 487.552 200.5 487C200.5 486.448 200.948 486 201.5 486H207.5C208.052 486 208.5 486.448 208.5 487ZM195.5 488C196.052 488 196.5 487.552 196.5 487C196.5 486.448 196.052 486 195.5 486H189.5C188.948 486 188.5 486.448 188.5 487C188.5 487.552 188.948 488 189.5 488H195.5ZM184.5 487C184.5 487.552 184.052 488 183.5 488H177.5C176.948 488 176.5 487.552 176.5 487C176.5 486.448 176.948 486 177.5 486H183.5C184.052 486 184.5 486.448 184.5 487ZM171.5 488C172.052 488 172.5 487.552 172.5 487C172.5 486.448 172.052 486 171.5 486H165.5C164.948 486 164.5 486.448 164.5 487C164.5 487.552 164.948 488 165.5 488H171.5ZM160.5 487C160.5 487.552 160.052 488 159.5 488H153.5C152.948 488 152.5 487.552 152.5 487C152.5 486.448 152.948 486 153.5 486H159.5C160.052 486 160.5 486.448 160.5 487ZM147.5 488C148.052 488 148.5 487.552 148.5 487C148.5 486.448 148.052 486 147.5 486H141.5C140.948 486 140.5 486.448 140.5 487C140.5 487.552 140.948 488 141.5 488H147.5ZM136.5 487C136.5 487.552 136.052 488 135.5 488H129.5C128.948 488 128.5 487.552 128.5 487C128.5 486.448 128.948 486 129.5 486H135.5C136.052 486 136.5 486.448 136.5 487ZM123.5 488C124.052 488 124.5 487.552 124.5 487C124.5 486.448 124.052 486 123.5 486H117.5C116.948 486 116.5 486.448 116.5 487C116.5 487.552 116.948 488 117.5 488H123.5ZM112.5 487C112.5 487.552 112.052 488 111.5 488H105.5C104.948 488 104.5 487.552 104.5 487C104.5 486.448 104.948 486 105.5 486H111.5C112.052 486 112.5 486.448 112.5 487ZM99.5 488C100.052 488 100.5 487.552 100.5 487C100.5 486.448 100.052 486 99.5 486H93.5C92.9477 486 92.5 486.448 92.5 487C92.5 487.552 92.9477 488 93.5 488H99.5ZM88.5 487C88.5 487.552 88.0523 488 87.5 488H81.5C80.9477 488 80.5 487.552 80.5 487C80.5 486.448 80.9477 486 81.5 486H87.5C88.0523 486 88.5 486.448 88.5 487ZM75.5 488C76.0523 488 76.5 487.552 76.5 487C76.5 486.448 76.0523 486 75.5 486H69.5C68.9477 486 68.5 486.448 68.5 487C68.5 487.552 68.9477 488 69.5 488H75.5ZM64.5 487C64.5 487.552 64.0523 488 63.5 488H57.5C56.9477 488 56.5 487.552 56.5 487C56.5 486.448 56.9477 486 57.5 486H63.5C64.0523 486 64.5 486.448 64.5 487ZM51.5 488C52.0523 488 52.5 487.552 52.5 487C52.5 486.448 52.0523 486 51.5 486H45.5C44.9477 486 44.5 486.448 44.5 487C44.5 487.552 44.9477 488 45.5 488H51.5ZM40.5 487C40.5 487.552 40.0523 488 39.5 488H33.5C32.9477 488 32.5 487.552 32.5 487C32.5 486.448 32.9477 486 33.5 486H39.5C40.0523 486 40.5 486.448 40.5 487ZM27.5 488C28.0523 488 28.5 487.552 28.5 487C28.5 486.448 28.0523 486 27.5 486H21.5C20.9477 486 20.5 486.448 20.5 487C20.5 487.552 20.9477 488 21.5 488H27.5Z"/>
</mask>
<path fill-rule="evenodd" clip-rule="evenodd" d="M300.5 24.2433C300.5 21.7558 297.988 20 295.5 20C287.216 20 280.5 13.2843 280.5 5C280.5 2.51247 278.744 0 276.257 0H24.7433C22.2558 0 20.5 2.51246 20.5 5C20.5 13.2843 13.7843 20 5.5 20C3.01246 20 0.5 21.7558 0.5 24.2433V468.757C0.5 471.244 3.01247 473 5.5 473C13.7843 473 20.5 479.716 20.5 488C20.5 496.284 13.7843 503 5.5 503C3.01247 503 0.5 504.756 0.5 507.243V575.757C0.5 578.244 3.01245 580 5.5 580C13.7843 580 20.5 586.716 20.5 595C20.5 597.488 22.2558 600 24.7433 600H276.257C278.744 600 280.5 597.488 280.5 595C280.5 586.716 287.216 580 295.5 580C297.988 580 300.5 578.244 300.5 575.757V507.243C300.5 504.756 297.988 503 295.5 503C287.216 503 280.5 496.284 280.5 488C280.5 479.716 287.216 473 295.5 473C297.988 473 300.5 471.244 300.5 468.757V24.2433ZM280.5 487C280.5 487.552 280.052 488 279.5 488H273.5C272.948 488 272.5 487.552 272.5 487C272.5 486.448 272.948 486 273.5 486H279.5C280.052 486 280.5 486.448 280.5 487ZM267.5 488C268.052 488 268.5 487.552 268.5 487C268.5 486.448 268.052 486 267.5 486H261.5C260.948 486 260.5 486.448 260.5 487C260.5 487.552 260.948 488 261.5 488H267.5ZM256.5 487C256.5 487.552 256.052 488 255.5 488H249.5C248.948 488 248.5 487.552 248.5 487C248.5 486.448 248.948 486 249.5 486H255.5C256.052 486 256.5 486.448 256.5 487ZM243.5 488C244.052 488 244.5 487.552 244.5 487C244.5 486.448 244.052 486 243.5 486H237.5C236.948 486 236.5 486.448 236.5 487C236.5 487.552 236.948 488 237.5 488H243.5ZM232.5 487C232.5 487.552 232.052 488 231.5 488H225.5C224.948 488 224.5 487.552 224.5 487C224.5 486.448 224.948 486 225.5 486H231.5C232.052 486 232.5 486.448 232.5 487ZM219.5 488C220.052 488 220.5 487.552 220.5 487C220.5 486.448 220.052 486 219.5 486H213.5C212.948 486 212.5 486.448 212.5 487C212.5 487.552 212.948 488 213.5 488H219.5ZM208.5 487C208.5 487.552 208.052 488 207.5 488H201.5C200.948 488 200.5 487.552 200.5 487C200.5 486.448 200.948 486 201.5 486H207.5C208.052 486 208.5 486.448 208.5 487ZM195.5 488C196.052 488 196.5 487.552 196.5 487C196.5 486.448 196.052 486 195.5 486H189.5C188.948 486 188.5 486.448 188.5 487C188.5 487.552 188.948 488 189.5 488H195.5ZM184.5 487C184.5 487.552 184.052 488 183.5 488H177.5C176.948 488 176.5 487.552 176.5 487C176.5 486.448 176.948 486 177.5 486H183.5C184.052 486 184.5 486.448 184.5 487ZM171.5 488C172.052 488 172.5 487.552 172.5 487C172.5 486.448 172.052 486 171.5 486H165.5C164.948 486 164.5 486.448 164.5 487C164.5 487.552 164.948 488 165.5 488H171.5ZM160.5 487C160.5 487.552 160.052 488 159.5 488H153.5C152.948 488 152.5 487.552 152.5 487C152.5 486.448 152.948 486 153.5 486H159.5C160.052 486 160.5 486.448 160.5 487ZM147.5 488C148.052 488 148.5 487.552 148.5 487C148.5 486.448 148.052 486 147.5 486H141.5C140.948 486 140.5 486.448 140.5 487C140.5 487.552 140.948 488 141.5 488H147.5ZM136.5 487C136.5 487.552 136.052 488 135.5 488H129.5C128.948 488 128.5 487.552 128.5 487C128.5 486.448 128.948 486 129.5 486H135.5C136.052 486 136.5 486.448 136.5 487ZM123.5 488C124.052 488 124.5 487.552 124.5 487C124.5 486.448 124.052 486 123.5 486H117.5C116.948 486 116.5 486.448 116.5 487C116.5 487.552 116.948 488 117.5 488H123.5ZM112.5 487C112.5 487.552 112.052 488 111.5 488H105.5C104.948 488 104.5 487.552 104.5 487C104.5 486.448 104.948 486 105.5 486H111.5C112.052 486 112.5 486.448 112.5 487ZM99.5 488C100.052 488 100.5 487.552 100.5 487C100.5 486.448 100.052 486 99.5 486H93.5C92.9477 486 92.5 486.448 92.5 487C92.5 487.552 92.9477 488 93.5 488H99.5ZM88.5 487C88.5 487.552 88.0523 488 87.5 488H81.5C80.9477 488 80.5 487.552 80.5 487C80.5 486.448 80.9477 486 81.5 486H87.5C88.0523 486 88.5 486.448 88.5 487ZM75.5 488C76.0523 488 76.5 487.552 76.5 487C76.5 486.448 76.0523 486 75.5 486H69.5C68.9477 486 68.5 486.448 68.5 487C68.5 487.552 68.9477 488 69.5 488H75.5ZM64.5 487C64.5 487.552 64.0523 488 63.5 488H57.5C56.9477 488 56.5 487.552 56.5 487C56.5 486.448 56.9477 486 57.5 486H63.5C64.0523 486 64.5 486.448 64.5 487ZM51.5 488C52.0523 488 52.5 487.552 52.5 487C52.5 486.448 52.0523 486 51.5 486H45.5C44.9477 486 44.5 486.448 44.5 487C44.5 487.552 44.9477 488 45.5 488H51.5ZM40.5 487C40.5 487.552 40.0523 488 39.5 488H33.5C32.9477 488 32.5 487.552 32.5 487C32.5 486.448 32.9477 486 33.5 486H39.5C40.0523 486 40.5 486.448 40.5 487ZM27.5 488C28.0523 488 28.5 487.552 28.5 487C28.5 486.448 28.0523 486 27.5 486H21.5C20.9477 486 20.5 486.448 20.5 487C20.5 487.552 20.9477 488 21.5 488H27.5Z" fill="#072C31"/>
<path fill-rule="evenodd" clip-rule="evenodd" d="M300.5 24.2433C300.5 21.7558 297.988 20 295.5 20C287.216 20 280.5 13.2843 280.5 5C280.5 2.51247 278.744 0 276.257 0H24.7433C22.2558 0 20.5 2.51246 20.5 5C20.5 13.2843 13.7843 20 5.5 20C3.01246 20 0.5 21.7558 0.5 24.2433V468.757C0.5 471.244 3.01247 473 5.5 473C13.7843 473 20.5 479.716 20.5 488C20.5 496.284 13.7843 503 5.5 503C3.01247 503 0.5 504.756 0.5 507.243V575.757C0.5 578.244 3.01245 580 5.5 580C13.7843 580 20.5 586.716 20.5 595C20.5 597.488 22.2558 600 24.7433 600H276.257C278.744 600 280.5 597.488 280.5 595C280.5 586.716 287.216 580 295.5 580C297.988 580 300.5 578.244 300.5 575.757V507.243C300.5 504.756 297.988 503 295.5 503C287.216 503 280.5 496.284 280.5 488C280.5 479.716 287.216 473 295.5 473C297.988 473 300.5 471.244 300.5 468.757V24.2433ZM280.5 487C280.5 487.552 280.052 488 279.5 488H273.5C272.948 488 272.5 487.552 272.5 487C272.5 486.448 272.948 486 273.5 486H279.5C280.052 486 280.5 486.448 280.5 487ZM267.5 488C268.052 488 268.5 487.552 268.5 487C268.5 486.448 268.052 486 267.5 486H261.5C260.948 486 260.5 486.448 260.5 487C260.5 487.552 260.948 488 261.5 488H267.5ZM256.5 487C256.5 487.552 256.052 488 255.5 488H249.5C248.948 488 248.5 487.552 248.5 487C248.5 486.448 248.948 486 249.5 486H255.5C256.052 486 256.5 486.448 256.5 487ZM243.5 488C244.052 488 244.5 487.552 244.5 487C244.5 486.448 244.052 486 243.5 486H237.5C236.948 486 236.5 486.448 236.5 487C236.5 487.552 236.948 488 237.5 488H243.5ZM232.5 487C232.5 487.552 232.052 488 231.5 488H225.5C224.948 488 224.5 487.552 224.5 487C224.5 486.448 224.948 486 225.5 486H231.5C232.052 486 232.5 486.448 232.5 487ZM219.5 488C220.052 488 220.5 487.552 220.5 487C220.5 486.448 220.052 486 219.5 486H213.5C212.948 486 212.5 486.448 212.5 487C212.5 487.552 212.948 488 213.5 488H219.5ZM208.5 487C208.5 487.552 208.052 488 207.5 488H201.5C200.948 488 200.5 487.552 200.5 487C200.5 486.448 200.948 486 201.5 486H207.5C208.052 486 208.5 486.448 208.5 487ZM195.5 488C196.052 488 196.5 487.552 196.5 487C196.5 486.448 196.052 486 195.5 486H189.5C188.948 486 188.5 486.448 188.5 487C188.5 487.552 188.948 488 189.5 488H195.5ZM184.5 487C184.5 487.552 184.052 488 183.5 488H177.5C176.948 488 176.5 487.552 176.5 487C176.5 486.448 176.948 486 177.5 486H183.5C184.052 486 184.5 486.448 184.5 487ZM171.5 488C172.052 488 172.5 487.552 172.5 487C172.5 486.448 172.052 486 171.5 486H165.5C164.948 486 164.5 486.448 164.5 487C164.5 487.552 164.948 488 165.5 488H171.5ZM160.5 487C160.5 487.552 160.052 488 159.5 488H153.5C152.948 488 152.5 487.552 152.5 487C152.5 486.448 152.948 486 153.5 486H159.5C160.052 486 160.5 486.448 160.5 487ZM147.5 488C148.052 488 148.5 487.552 148.5 487C148.5 486.448 148.052 486 147.5 486H141.5C140.948 486 140.5 486.448 140.5 487C140.5 487.552 140.948 488 141.5 488H147.5ZM136.5 487C136.5 487.552 136.052 488 135.5 488H129.5C128.948 488 128.5 487.552 128.5 487C128.5 486.448 128.948 486 129.5 486H135.5C136.052 486 136.5 486.448 136.5 487ZM123.5 488C124.052 488 124.5 487.552 124.5 487C124.5 486.448 124.052 486 123.5 486H117.5C116.948 486 116.5 486.448 116.5 487C116.5 487.552 116.948 488 117.5 488H123.5ZM112.5 487C112.5 487.552 112.052 488 111.5 488H105.5C104.948 488 104.5 487.552 104.5 487C104.5 486.448 104.948 486 105.5 486H111.5C112.052 486 112.5 486.448 112.5 487ZM99.5 488C100.052 488 100.5 487.552 100.5 487C100.5 486.448 100.052 486 99.5 486H93.5C92.9477 486 92.5 486.448 92.5 487C92.5 487.552 92.9477 488 93.5 488H99.5ZM88.5 487C88.5 487.552 88.0523 488 87.5 488H81.5C80.9477 488 80.5 487.552 80.5 487C80.5 486.448 80.9477 486 81.5 486H87.5C88.0523 486 88.5 486.448 88.5 487ZM75.5 488C76.0523 488 76.5 487.552 76.5 487C76.5 486.448 76.0523 486 75.5 486H69.5C68.9477 486 68.5 486.448 68.5 487C68.5 487.552 68.9477 488 69.5 488H75.5ZM64.5 487C64.5 487.552 64.0523 488 63.5 488H57.5C56.9477 488 56.5 487.552 56.5 487C56.5 486.448 56.9477 486 57.5 486H63.5C64.0523 486 64.5 486.448 64.5 487ZM51.5 488C52.0523 488 52.5 487.552 52.5 487C52.5 486.448 52.0523 486 51.5 486H45.5C44.9477 486 44.5 486.448 44.5 487C44.5 487.552 44.9477 488 45.5 488H51.5ZM40.5 487C40.5 487.552 40.0523 488 39.5 488H33.5C32.9477 488 32.5 487.552 32.5 487C32.5 486.448 32.9477 486 33.5 486H39.5C40.0523 486 40.5 486.448 40.5 487ZM27.5 488C28.0523 488 28.5 487.552 28.5 487C28.5 486.448 28.0523 486 27.5 486H21.5C20.9477 486 20.5 486.448 20.5 487C20.5 487.552 20.9477 488 21.5 488H27.5Z" fill="url(#paint0_radial_4019_409)"/>
<path fill-rule="evenodd" clip-rule="evenodd" d="M300.5 24.2433C300.5 21.7558 297.988 20 295.5 20C287.216 20 280.5 13.2843 280.5 5C280.5 2.51247 278.744 0 276.257 0H24.7433C22.2558 0 20.5 2.51246 20.5 5C20.5 13.2843 13.7843 20 5.5 20C3.01246 20 0.5 21.7558 0.5 24.2433V468.757C0.5 471.244 3.01247 473 5.5 473C13.7843 473 20.5 479.716 20.5 488C20.5 496.284 13.7843 503 5.5 503C3.01247 503 0.5 504.756 0.5 507.243V575.757C0.5 578.244 3.01245 580 5.5 580C13.7843 580 20.5 586.716 20.5 595C20.5 597.488 22.2558 600 24.7433 600H276.257C278.744 600 280.5 597.488 280.5 595C280.5 586.716 287.216 580 295.5 580C297.988 580 300.5 578.244 300.5 575.757V507.243C300.5 504.756 297.988 503 295.5 503C287.216 503 280.5 496.284 280.5 488C280.5 479.716 287.216 473 295.5 473C297.988 473 300.5 471.244 300.5 468.757V24.2433ZM280.5 487C280.5 487.552 280.052 488 279.5 488H273.5C272.948 488 272.5 487.552 272.5 487C272.5 486.448 272.948 486 273.5 486H279.5C280.052 486 280.5 486.448 280.5 487ZM267.5 488C268.052 488 268.5 487.552 268.5 487C268.5 486.448 268.052 486 267.5 486H261.5C260.948 486 260.5 486.448 260.5 487C260.5 487.552 260.948 488 261.5 488H267.5ZM256.5 487C256.5 487.552 256.052 488 255.5 488H249.5C248.948 488 248.5 487.552 248.5 487C248.5 486.448 248.948 486 249.5 486H255.5C256.052 486 256.5 486.448 256.5 487ZM243.5 488C244.052 488 244.5 487.552 244.5 487C244.5 486.448 244.052 486 243.5 486H237.5C236.948 486 236.5 486.448 236.5 487C236.5 487.552 236.948 488 237.5 488H243.5ZM232.5 487C232.5 487.552 232.052 488 231.5 488H225.5C224.948 488 224.5 487.552 224.5 487C224.5 486.448 224.948 486 225.5 486H231.5C232.052 486 232.5 486.448 232.5 487ZM219.5 488C220.052 488 220.5 487.552 220.5 487C220.5 486.448 220.052 486 219.5 486H213.5C212.948 486 212.5 486.448 212.5 487C212.5 487.552 212.948 488 213.5 488H219.5ZM208.5 487C208.5 487.552 208.052 488 207.5 488H201.5C200.948 488 200.5 487.552 200.5 487C200.5 486.448 200.948 486 201.5 486H207.5C208.052 486 208.5 486.448 208.5 487ZM195.5 488C196.052 488 196.5 487.552 196.5 487C196.5 486.448 196.052 486 195.5 486H189.5C188.948 486 188.5 486.448 188.5 487C188.5 487.552 188.948 488 189.5 488H195.5ZM184.5 487C184.5 487.552 184.052 488 183.5 488H177.5C176.948 488 176.5 487.552 176.5 487C176.5 486.448 176.948 486 177.5 486H183.5C184.052 486 184.5 486.448 184.5 487ZM171.5 488C172.052 488 172.5 487.552 172.5 487C172.5 486.448 172.052 486 171.5 486H165.5C164.948 486 164.5 486.448 164.5 487C164.5 487.552 164.948 488 165.5 488H171.5ZM160.5 487C160.5 487.552 160.052 488 159.5 488H153.5C152.948 488 152.5 487.552 152.5 487C152.5 486.448 152.948 486 153.5 486H159.5C160.052 486 160.5 486.448 160.5 487ZM147.5 488C148.052 488 148.5 487.552 148.5 487C148.5 486.448 148.052 486 147.5 486H141.5C140.948 486 140.5 486.448 140.5 487C140.5 487.552 140.948 488 141.5 488H147.5ZM136.5 487C136.5 487.552 136.052 488 135.5 488H129.5C128.948 488 128.5 487.552 128.5 487C128.5 486.448 128.948 486 129.5 486H135.5C136.052 486 136.5 486.448 136.5 487ZM123.5 488C124.052 488 124.5 487.552 124.5 487C124.5 486.448 124.052 486 123.5 486H117.5C116.948 486 116.5 486.448 116.5 487C116.5 487.552 116.948 488 117.5 488H123.5ZM112.5 487C112.5 487.552 112.052 488 111.5 488H105.5C104.948 488 104.5 487.552 104.5 487C104.5 486.448 104.948 486 105.5 486H111.5C112.052 486 112.5 486.448 112.5 487ZM99.5 488C100.052 488 100.5 487.552 100.5 487C100.5 486.448 100.052 486 99.5 486H93.5C92.9477 486 92.5 486.448 92.5 487C92.5 487.552 92.9477 488 93.5 488H99.5ZM88.5 487C88.5 487.552 88.0523 488 87.5 488H81.5C80.9477 488 80.5 487.552 80.5 487C80.5 486.448 80.9477 486 81.5 486H87.5C88.0523 486 88.5 486.448 88.5 487ZM75.5 488C76.0523 488 76.5 487.552 76.5 487C76.5 486.448 76.0523 486 75.5 486H69.5C68.9477 486 68.5 486.448 68.5 487C68.5 487.552 68.9477 488 69.5 488H75.5ZM64.5 487C64.5 487.552 64.0523 488 63.5 488H57.5C56.9477 488 56.5 487.552 56.5 487C56.5 486.448 56.9477 486 57.5 486H63.5C64.0523 486 64.5 486.448 64.5 487ZM51.5 488C52.0523 488 52.5 487.552 52.5 487C52.5 486.448 52.0523 486 51.5 486H45.5C44.9477 486 44.5 486.448 44.5 487C44.5 487.552 44.9477 488 45.5 488H51.5ZM40.5 487C40.5 487.552 40.0523 488 39.5 488H33.5C32.9477 488 32.5 487.552 32.5 487C32.5 486.448 32.9477 486 33.5 486H39.5C40.0523 486 40.5 486.448 40.5 487ZM27.5 488C28.0523 488 28.5 487.552 28.5 487C28.5 486.448 28.0523 486 27.5 486H21.5C20.9477 486 20.5 486.448 20.5 487C20.5 487.552 20.9477 488 21.5 488H27.5Z" fill="url(#paint1_radial_4019_409)"/>
<path d="M279.5 5C279.5 13.8366 286.663 21 295.5 21V19C287.768 19 281.5 12.732 281.5 5H279.5ZM24.7433 1H276.257V-1H24.7433V1ZM5.5 21C14.3366 21 21.5 13.8366 21.5 5H19.5C19.5 12.732 13.232 19 5.5 19V21ZM1.5 468.757V24.2433H-0.5V468.757H1.5ZM21.5 488C21.5 479.163 14.3366 472 5.5 472V474C13.232 474 19.5 480.268 19.5 488H21.5ZM5.5 504C14.3366 504 21.5 496.837 21.5 488H19.5C19.5 495.732 13.232 502 5.5 502V504ZM1.5 575.757V507.243H-0.5V575.757H1.5ZM21.5 595C21.5 586.163 14.3366 579 5.5 579V581C13.232 581 19.5 587.268 19.5 595H21.5ZM276.257 599H24.7433V601H276.257V599ZM281.5 595C281.5 587.268 287.768 581 295.5 581V579C286.663 579 279.5 586.163 279.5 595H281.5ZM299.5 507.243V575.757H301.5V507.243H299.5ZM279.5 488C279.5 496.837 286.663 504 295.5 504V502C287.768 502 281.5 495.732 281.5 488H279.5ZM295.5 472C286.663 472 279.5 479.163 279.5 488H281.5C281.5 480.268 287.768 474 295.5 474V472ZM299.5 24.2433V468.757H301.5V24.2433H299.5ZM279.5 489C280.605 489 281.5 488.105 281.5 487H279.5V489ZM273.5 489H279.5V487H273.5V489ZM271.5 487C271.5 488.105 272.395 489 273.5 489V487H271.5ZM273.5 485C272.395 485 271.5 485.895 271.5 487H273.5V485ZM279.5 485H273.5V487H279.5V485ZM281.5 487C281.5 485.895 280.605 485 279.5 485V487H281.5ZM267.5 487V489C268.605 489 269.5 488.105 269.5 487H267.5ZM267.5 487H269.5C269.5 485.895 268.605 485 267.5 485V487ZM261.5 487H267.5V485H261.5V487ZM261.5 487V485C260.395 485 259.5 485.895 259.5 487H261.5ZM261.5 487H259.5C259.5 488.105 260.395 489 261.5 489V487ZM267.5 487H261.5V489H267.5V487ZM255.5 489C256.605 489 257.5 488.105 257.5 487H255.5V489ZM249.5 489H255.5V487H249.5V489ZM247.5 487C247.5 488.105 248.395 489 249.5 489V487H247.5ZM249.5 485C248.395 485 247.5 485.895 247.5 487H249.5V485ZM255.5 485H249.5V487H255.5V485ZM257.5 487C257.5 485.895 256.605 485 255.5 485V487H257.5ZM243.5 487V489C244.605 489 245.5 488.105 245.5 487H243.5ZM243.5 487H245.5C245.5 485.895 244.605 485 243.5 485V487ZM237.5 487H243.5V485H237.5V487ZM237.5 487V485C236.395 485 235.5 485.895 235.5 487H237.5ZM237.5 487H235.5C235.5 488.105 236.395 489 237.5 489V487ZM243.5 487H237.5V489H243.5V487ZM231.5 489C232.605 489 233.5 488.105 233.5 487H231.5V489ZM225.5 489H231.5V487H225.5V489ZM223.5 487C223.5 488.105 224.395 489 225.5 489V487H223.5ZM225.5 485C224.395 485 223.5 485.895 223.5 487H225.5V485ZM231.5 485H225.5V487H231.5V485ZM233.5 487C233.5 485.895 232.605 485 231.5 485V487H233.5ZM219.5 487V489C220.605 489 221.5 488.105 221.5 487H219.5ZM219.5 487H221.5C221.5 485.895 220.605 485 219.5 485V487ZM213.5 487H219.5V485H213.5V487ZM213.5 487V485C212.395 485 211.5 485.895 211.5 487H213.5ZM213.5 487H211.5C211.5 488.105 212.395 489 213.5 489V487ZM219.5 487H213.5V489H219.5V487ZM207.5 489C208.605 489 209.5 488.105 209.5 487H207.5V489ZM201.5 489H207.5V487H201.5V489ZM199.5 487C199.5 488.105 200.395 489 201.5 489V487H199.5ZM201.5 485C200.395 485 199.5 485.895 199.5 487H201.5V485ZM207.5 485H201.5V487H207.5V485ZM209.5 487C209.5 485.895 208.605 485 207.5 485V487H209.5ZM195.5 487V489C196.605 489 197.5 488.105 197.5 487H195.5ZM195.5 487H197.5C197.5 485.895 196.605 485 195.5 485V487ZM189.5 487H195.5V485H189.5V487ZM189.5 487V485C188.395 485 187.5 485.895 187.5 487H189.5ZM189.5 487H187.5C187.5 488.105 188.395 489 189.5 489V487ZM195.5 487H189.5V489H195.5V487ZM183.5 489C184.605 489 185.5 488.105 185.5 487H183.5V489ZM177.5 489H183.5V487H177.5V489ZM175.5 487C175.5 488.105 176.395 489 177.5 489V487H175.5ZM177.5 485C176.395 485 175.5 485.895 175.5 487H177.5V485ZM183.5 485H177.5V487H183.5V485ZM185.5 487C185.5 485.895 184.605 485 183.5 485V487H185.5ZM171.5 487V489C172.605 489 173.5 488.105 173.5 487H171.5ZM171.5 487H173.5C173.5 485.895 172.605 485 171.5 485V487ZM165.5 487H171.5V485H165.5V487ZM165.5 487V485C164.395 485 163.5 485.895 163.5 487H165.5ZM165.5 487H163.5C163.5 488.105 164.395 489 165.5 489V487ZM171.5 487H165.5V489H171.5V487ZM159.5 489C160.605 489 161.5 488.105 161.5 487H159.5V489ZM153.5 489H159.5V487H153.5V489ZM151.5 487C151.5 488.105 152.395 489 153.5 489V487H151.5ZM153.5 485C152.395 485 151.5 485.895 151.5 487H153.5V485ZM159.5 485H153.5V487H159.5V485ZM161.5 487C161.5 485.895 160.605 485 159.5 485V487H161.5ZM147.5 487V489C148.605 489 149.5 488.105 149.5 487H147.5ZM147.5 487H149.5C149.5 485.895 148.605 485 147.5 485V487ZM141.5 487H147.5V485H141.5V487ZM141.5 487V485C140.395 485 139.5 485.895 139.5 487H141.5ZM141.5 487H139.5C139.5 488.105 140.395 489 141.5 489V487ZM147.5 487H141.5V489H147.5V487ZM135.5 489C136.605 489 137.5 488.105 137.5 487H135.5V489ZM129.5 489H135.5V487H129.5V489ZM127.5 487C127.5 488.105 128.395 489 129.5 489V487H127.5ZM129.5 485C128.395 485 127.5 485.895 127.5 487H129.5V485ZM135.5 485H129.5V487H135.5V485ZM137.5 487C137.5 485.895 136.605 485 135.5 485V487H137.5ZM123.5 487V489C124.605 489 125.5 488.105 125.5 487H123.5ZM123.5 487H125.5C125.5 485.895 124.605 485 123.5 485V487ZM117.5 487H123.5V485H117.5V487ZM117.5 487V485C116.395 485 115.5 485.895 115.5 487H117.5ZM117.5 487H115.5C115.5 488.105 116.395 489 117.5 489V487ZM123.5 487H117.5V489H123.5V487ZM111.5 489C112.605 489 113.5 488.105 113.5 487H111.5V489ZM105.5 489H111.5V487H105.5V489ZM103.5 487C103.5 488.105 104.395 489 105.5 489V487H103.5ZM105.5 485C104.395 485 103.5 485.895 103.5 487H105.5V485ZM111.5 485H105.5V487H111.5V485ZM113.5 487C113.5 485.895 112.605 485 111.5 485V487H113.5ZM99.5 487V489C100.605 489 101.5 488.105 101.5 487H99.5ZM99.5 487H101.5C101.5 485.895 100.605 485 99.5 485V487ZM93.5 487H99.5V485H93.5V487ZM93.5 487V485C92.3954 485 91.5 485.895 91.5 487H93.5ZM93.5 487H91.5C91.5 488.105 92.3954 489 93.5 489V487ZM99.5 487H93.5V489H99.5V487ZM87.5 489C88.6046 489 89.5 488.105 89.5 487H87.5V489ZM81.5 489H87.5V487H81.5V489ZM79.5 487C79.5 488.105 80.3954 489 81.5 489V487H79.5ZM81.5 485C80.3954 485 79.5 485.895 79.5 487H81.5V485ZM87.5 485H81.5V487H87.5V485ZM89.5 487C89.5 485.895 88.6046 485 87.5 485V487H89.5ZM75.5 487V489C76.6046 489 77.5 488.105 77.5 487H75.5ZM75.5 487H77.5C77.5 485.895 76.6046 485 75.5 485V487ZM69.5 487H75.5V485H69.5V487ZM69.5 487V485C68.3954 485 67.5 485.895 67.5 487H69.5ZM69.5 487H67.5C67.5 488.105 68.3954 489 69.5 489V487ZM75.5 487H69.5V489H75.5V487ZM63.5 489C64.6046 489 65.5 488.105 65.5 487H63.5V489ZM57.5 489H63.5V487H57.5V489ZM55.5 487C55.5 488.105 56.3954 489 57.5 489V487H55.5ZM57.5 485C56.3954 485 55.5 485.895 55.5 487H57.5V485ZM63.5 485H57.5V487H63.5V485ZM65.5 487C65.5 485.895 64.6046 485 63.5 485V487H65.5ZM51.5 487V489C52.6046 489 53.5 488.105 53.5 487H51.5ZM51.5 487H53.5C53.5 485.895 52.6046 485 51.5 485V487ZM45.5 487H51.5V485H45.5V487ZM45.5 487V485C44.3954 485 43.5 485.895 43.5 487H45.5ZM45.5 487H43.5C43.5 488.105 44.3954 489 45.5 489V487ZM51.5 487H45.5V489H51.5V487ZM39.5 489C40.6046 489 41.5 488.105 41.5 487H39.5V489ZM33.5 489H39.5V487H33.5V489ZM31.5 487C31.5 488.105 32.3954 489 33.5 489V487H31.5ZM33.5 485C32.3954 485 31.5 485.895 31.5 487H33.5V485ZM39.5 485H33.5V487H39.5V485ZM41.5 487C41.5 485.895 40.6046 485 39.5 485V487H41.5ZM27.5 487V489C28.6046 489 29.5 488.105 29.5 487H27.5ZM27.5 487H29.5C29.5 485.895 28.6046 485 27.5 485V487ZM21.5 487H27.5V485H21.5V487ZM21.5 487V485C20.3954 485 19.5 485.895 19.5 487H21.5ZM21.5 487H19.5C19.5 488.105 20.3954 489 21.5 489V487ZM27.5 487H21.5V489H27.5V487ZM295.5 474C296.967 474 298.438 473.486 299.557 472.593C300.683 471.693 301.5 470.363 301.5 468.757H299.5C299.5 469.638 299.06 470.43 298.309 471.03C297.55 471.636 296.52 472 295.5 472V474ZM301.5 507.243C301.5 505.637 300.683 504.307 299.557 503.407C298.438 502.514 296.967 502 295.5 502V504C296.52 504 297.55 504.364 298.309 504.97C299.06 505.57 299.5 506.362 299.5 507.243H301.5ZM295.5 581C296.967 581 298.438 580.486 299.557 579.593C300.683 578.693 301.5 577.363 301.5 575.757H299.5C299.5 576.638 299.06 577.43 298.309 578.03C297.55 578.636 296.52 579 295.5 579V581ZM276.257 601C277.863 601 279.193 600.183 280.093 599.057C280.986 597.938 281.5 596.467 281.5 595H279.5C279.5 596.02 279.136 597.05 278.53 597.809C277.93 598.56 277.138 599 276.257 599V601ZM19.5 595C19.5 596.467 20.0139 597.938 20.9074 599.057C21.807 600.183 23.1366 601 24.7433 601V599C23.8625 599 23.0704 598.56 22.4703 597.809C21.864 597.05 21.5 596.02 21.5 595H19.5ZM-0.5 575.757C-0.5 577.363 0.316611 578.693 1.44316 579.593C2.56205 580.486 4.03284 581 5.5 581V579C4.47961 579 3.4504 578.636 2.69117 578.03C1.93961 577.43 1.5 576.638 1.5 575.757H-0.5ZM5.5 19C4.03285 19 2.56205 19.5139 1.44317 20.4074C0.316616 21.307 -0.5 22.6366 -0.5 24.2433H1.5C1.5 23.3625 1.93962 22.5704 2.69118 21.9703C3.45041 21.364 4.47962 21 5.5 21V19ZM24.7433 -1C23.1366 -1 21.807 -0.183383 20.9074 0.943168C20.0139 2.06206 19.5 3.53285 19.5 5H21.5C21.5 3.97961 21.864 2.95041 22.4703 2.19118C23.0704 1.43961 23.8625 1 24.7433 1V-1ZM-0.5 468.757C-0.5 470.363 0.316619 471.693 1.44317 472.593C2.56205 473.486 4.03285 474 5.5 474V472C4.47962 472 3.45041 471.636 2.69118 471.03C1.93961 470.43 1.5 469.638 1.5 468.757H-0.5ZM281.5 5C281.5 3.53285 280.986 2.06206 280.093 0.94317C279.193 -0.18338 277.863 -1 276.257 -1V1C277.138 1 277.93 1.43961 278.53 2.19118C279.136 2.95041 279.5 3.97962 279.5 5H281.5ZM5.5 502C4.03285 502 2.56205 502.514 1.44317 503.407C0.316619 504.307 -0.5 505.637 -0.5 507.243H1.5C1.5 506.362 1.93961 505.57 2.69118 504.97C3.45041 504.364 4.47962 504 5.5 504V502ZM295.5 21C296.52 21 297.55 21.364 298.309 21.9703C299.06 22.5704 299.5 23.3625 299.5 24.2433H301.5C301.5 22.6366 300.683 21.307 299.557 20.4074C298.438 19.5139 296.967 19 295.5 19V21Z" fill="#24A0B5" mask="url(#path-1-inside-1_4019_409)"/>
<defs>
<radialGradient id="paint0_radial_4019_409" cx="0" cy="0" r="1" gradientUnits="userSpaceOnUse" gradientTransform="translate(150.5 -6.2645e-06) rotate(90) scale(83.5 150)">
<stop stop-color="#24A0B5" stop-opacity="0.5"/>
<stop offset="1" stop-color="#24A0B5" stop-opacity="0"/>
</radialGradient>
<radialGradient id="paint1_radial_4019_409" cx="0" cy="0" r="1" gradientUnits="userSpaceOnUse" gradientTransform="translate(150.5 619.5) rotate(-90) scale(217 150)">
<stop stop-color="#24A0B5" stop-opacity="0.5"/>
<stop offset="1" stop-color="#24A0B5" stop-opacity="0"/>
</radialGradient>
</defs>
</svg>
